<?xml version="1.0" standalone="no"?>
<!DOCTYPE svg PUBLIC "-//W3C//DTD SVG 20010904//EN"
 "http://www.w3.org/TR/2001/REC-SVG-20010904/DTD/svg10.dtd">
<svg version="1.0" xmlns="http://www.w3.org/2000/svg"
 width="1280.000000pt" height="765.000000pt" viewBox="0 0 1280.000000 765.000000"
 preserveAspectRatio="xMidYMid meet">
<g transform="translate(0.000000,765.000000) scale(0.100000,-0.100000)"
fill="#000000" stroke="none">
<path d="M2062 7625 c-40 -13 -91 -35 -113 -50 -46 -33 -109 -122 -140 -203
-30 -74 -32 -203 -6 -281 l18 -54 -26 -21 -26 -21 40 -115 c40 -113 71 -160
106 -160 8 0 28 -27 45 -59 16 -33 34 -62 40 -66 24 -15 8 -61 -53 -144 -35
-47 -75 -106 -89 -131 -15 -25 -74 -96 -132 -159 -134 -144 -163 -199 -216
-419 -32 -131 -51 -185 -96 -275 -91 -182 -149 -261 -289 -392 -149 -140 -200
-206 -295 -385 -83 -155 -93 -170 -249 -380 -195 -264 -327 -425 -423 -515
-100 -93 -157 -161 -158 -185 0 -9 20 -38 44 -65 l44 -50 68 1 c81 1 129 21
138 59 4 17 22 33 59 51 74 37 93 58 122 134 24 64 29 69 108 123 45 31 123
93 172 138 50 45 144 123 210 173 70 53 195 166 300 271 153 153 186 191 215
250 19 38 60 104 91 145 30 41 75 104 99 140 24 36 94 129 156 208 62 78 125
163 140 190 57 102 117 182 139 188 28 7 185 -35 284 -76 40 -16 106 -50 147
-75 41 -24 121 -67 178 -93 58 -28 142 -79 190 -116 94 -71 176 -114 331 -171
112 -41 125 -49 125 -76 0 -11 -43 -104 -95 -209 -53 -106 -112 -241 -134
-308 -48 -146 -123 -447 -190 -767 -28 -132 -63 -294 -78 -360 -35 -150 -35
-204 0 -271 36 -71 92 -116 232 -184 66 -32 153 -84 193 -114 98 -75 170 -114
343 -186 164 -70 215 -98 271 -148 48 -43 173 -206 187 -245 27 -70 -2 -131
-67 -143 -49 -9 -355 11 -561 38 -187 24 -254 18 -323 -27 -60 -40 -80 -79
-75 -149 3 -56 6 -62 50 -102 114 -103 486 -261 1207 -512 173 -61 560 -199
860 -307 993 -359 1365 -478 1865 -600 707 -172 1556 -290 2420 -335 110 -5
290 -15 400 -21 380 -22 1113 12 1670 76 296 34 414 60 695 150 74 24 215 69
313 100 163 52 182 60 218 97 21 22 39 46 39 52 0 25 -60 68 -126 91 -88 30
-215 55 -479 95 -562 84 -2188 342 -3090 490 -792 130 -1277 215 -1595 280
-154 32 -267 50 -404 65 -136 15 -266 51 -311 87 -48 37 -578 672 -737 881
-86 114 -183 237 -215 273 -114 130 -262 229 -447 300 -27 11 -57 30 -68 44
-43 58 -107 346 -128 577 -18 194 -40 768 -40 1042 0 299 -13 417 -62 571 -83
260 -233 465 -436 595 -375 241 -473 318 -556 439 -54 79 -49 82 132 90 81 4
233 16 337 27 211 23 258 21 440 -17 113 -23 132 -24 315 -18 153 5 221 3 315
-10 177 -24 318 -59 373 -94 26 -16 80 -47 121 -68 72 -37 74 -37 120 -25 25
8 70 18 100 23 31 5 66 19 82 32 27 23 33 24 132 19 105 -6 123 -1 111 30 -7
19 -40 33 -111 47 -69 14 -88 23 -79 39 10 16 40 13 143 -13 50 -14 101 -22
112 -19 29 7 26 37 -5 62 -24 19 -168 71 -197 71 -29 0 -87 22 -82 31 10 15
54 10 150 -16 94 -26 140 -31 149 -16 19 30 -105 68 -262 80 -96 8 -126 21
-104 44 8 7 55 14 127 17 62 3 117 9 122 13 15 16 -37 46 -90 52 -28 4 -126 1
-217 -5 -138 -9 -179 -16 -253 -41 l-88 -30 -32 19 c-20 12 -77 26 -152 37
-166 23 -489 95 -675 150 -152 45 -159 46 -352 55 -109 5 -201 11 -206 13 -4
3 -75 13 -157 21 -358 38 -440 49 -642 86 -330 61 -380 61 -798 9 -88 -10
-173 -21 -190 -23 -70 -8 -93 17 -115 119 -16 74 -20 85 -34 85 -30 0 -48 30
-67 108 -43 184 -120 273 -284 327 -94 30 -138 30 -233 0z m2256 -3405 c124
-77 145 -112 211 -355 30 -109 51 -221 77 -410 58 -429 75 -489 184 -664 56
-90 62 -95 158 -136 48 -21 144 -66 213 -101 112 -57 132 -71 170 -120 24 -31
67 -76 96 -100 65 -52 247 -168 413 -263 116 -66 126 -74 202 -168 84 -102
112 -151 102 -178 -15 -38 -92 -33 -459 28 -154 26 -365 61 -470 78 -300 48
-513 88 -551 104 -19 8 -34 21 -34 29 0 8 21 32 46 53 118 99 113 183 -25 363
-37 49 -79 89 -120 116 -34 23 -90 71 -124 107 -44 46 -72 66 -97 72 -96 20
-193 104 -261 225 -77 139 -141 206 -296 311 -108 75 -133 102 -133 147 0 43
234 414 357 567 76 94 89 115 124 200 43 106 72 145 107 145 16 0 64 -22 110
-50z"/>
</g>
</svg>
